<?xml version="1.0" encoding="UTF-8"?>
<svg id="Layer_1" xmlns="http://www.w3.org/2000/svg" version="1.1" viewBox="0 0 1080 1080">
  <!-- Generator: Adobe Illustrator 29.5.1, SVG Export Plug-In . SVG Version: 2.1.0 Build 141)  -->
  <defs>
    <style>
      .st0 {
        fill: #c9924f;
      }

      .st1, .st2 {
        fill: #80383d;
      }

      .st2 {
        font-family: Doran-Medium, Doran;
        font-size: 83.28px;
        font-weight: 500;
      }
    </style>
  </defs>
  <text class="st2" transform="translate(315.73 728.87)"><tspan x="0" y="0">مبــادرة صحــوة</tspan></text>
  <g>
    <path class="st0" d="M685.73,547.66v87.95h-6.43v.02h-187.02c0-7.1,5.76-12.86,12.86-12.86h167.73v-62.25c0-7.1,5.76-12.86,12.86-12.86h0Z"/>
    <path class="st0" d="M685.72,453.88h0c-7.1,0-12.86-5.76-12.86-12.86v-16.67c0-46.01-36.37-70.78-74.87-97-4.26-2.9-8.67-5.91-12.99-8.91-7.95-5.54-15.84-10.79-24.18-16.35-4.73-3.15-9.58-6.39-14.53-9.73-8.78,7.06-15.37,11.43-25.48,18.15-3.63,2.41-7.73,5.14-12.59,8.42-2.31,1.56-4.62,3.12-6.94,4.67-37,24.86-72.13,48.46-77.97,88.75-.99,6.86-6.77,12-13.7,12h0c0-54.65,42.96-83.51,84.5-111.42,2.31-1.55,4.61-3.1,6.91-4.65,4.89-3.31,9.02-6.05,12.67-8.48,11.52-7.65,18.39-12.22,29.05-20.4l3.72-3.1,4,2.73c6.28,4.28,11.52,8.39,17.48,12.36,8.4,5.6,16.33,10.89,24.39,16.5,4.26,2.97,8.64,5.95,12.88,8.84,39.57,26.95,80.49,54.81,80.49,107.62v29.52Z"/>
    <g>
      <g>
        <g>
          <path class="st1" d="M691.53,489.42c-1.52-6.38-5.88-12.12-10.71-16.41-4.95-4.39-11.95-8.67-18.48-10.05-7.1-1.49-14.02,1.8-19.53,6.11-14.71,11.5-19.41,29.71-25.03,46.62l-.05.05c-.52.03-5.63-1.2-6.13-1.32-1.94-.48-3.86-1.15-5.5-2.27-1.04-.71-1.96-1.6-2.74-2.58-.39-.48-.69-1.03-1.07-1.51-.63-.81-1.5-1.26-1.5-1.26,0,0-.42,1.33-.57,1.71-.27.65-.48,1.28-.86,1.89-.75,1.21-1.8,2.23-2.96,3.05-1.17.83-2.46,1.47-3.78,2.05-.64.28-1.3.55-1.95.81-.31.13-.62.25-.94.37-.23.09-1.23.21-1.38.39,2.98-6.03,5.38-10.69,13.13-16.77,2.66-2.09,5.66-3.7,8.77-5.05,1.23-.53,2.43-1.13,3.6-1.78,0,0,4.25-9.6,5.16-12.4.97-2.99,1.94-6.02,2.62-9.1.1-.41.57-4,.49-3.96-15.32,8.58-35.68,6.18-52.45,4.36-8.71-.96-17.57-3.24-26.37-2.73-8.53.49-16.54,3.39-23.63,8.1-2.57,1.71-3.07,5.32-3.89,8.04-1.03,3.39-2.14,6.76-3.04,10.2-.54,2.05-1,4.13-1.31,6.23-.05.35-.07.76-.07.76,0,0,.63-.26,1-.46,1.43-.76,2.81-1.62,4.25-2.35,2.87-1.46,5.88-2.64,8.98-3.49,2.75-.76,5.58-1.26,8.42-1.48,9.14-.73,18.31,1.66,27.37,2.64,8.16.88,17.55,2.04,26.41,1.87-1.29,1.52-2.44,2.81-3.6,4.43-5.06,7.06-6.45,14.28-14.51,19.07-3.34,2.42-8.94,3.83-12.97,4.92-12.21,3.31-24.41,6.35-37.3,7.96-.86-10.85-5.44-19.74-10.26-23.91-1.89-1.64-4.43-3.38-7.85-4.65-1.08-.39-1.27-.43-2.52-.61-2.01-.29-7.11.29-10.73,2.61-2.09,1.34-6.04,2.94-10.89,11.51-3.73,6.6-4.65,9.99-6.85,17.92-1.08,3.92-1.71,9.12-1.71,12.05,0,3.23.08,7.32,2.33,9.77,5.53,6.08,16.7,4.2,23.91,3.62,4.75-.38,9.5-1.48,14.22-1.73.31,1.31-.33,3.12-.65,4.43-.23.98-.92,2.86-1.18,3.59-.07.2-.17.44-.29.72-5.3,11.81-16.22,19.05-27.66,24.48-9.44,4.48-20.93,6.5-32.2,6.37-10.73-.12-25.73-3.42-34.13-11.27-7.12-6.65-9.16-16.6-10.29-27.34-.59-5.66-1.57-13.57-.09-19.28-3.12,12-4.82,24.48-4.29,36.9.42,9.49,2.09,19.24,6.32,27.84,2.9,5.9,7.53,10.57,13.03,14.01,1.85,1.16,3.81,2.19,5.83,3.06,6.85,2.98,14.36,4.28,21.81,4.34,19.49.16,40.28-8.5,52.28-24.22,7.46-9.78,11.63-20.43,15.68-31.87,1.51-4.23,2.75-8.59,3.72-13.02,14.69-2.16,29.25-5.45,43.4-9.41,8.53-2.39,17.53-4.85,25.33-9.18.97-.54,1.98-1.31,2.87-1.94.43-.3,1.17-1.46,1.17-1.46,0,0,3.34,1.28,4.58,1.69,4.85,1.55,9.86,2.84,14.92,3.81-1.84,8.32-2.96,16.76-2.75,25.33h0c1.17-1.02,2.12-2.29,2.71-3.73.81-2,1.06-4.74,1.44-6.31,1.14-4.71,2.07-9.73,3.85-14.26,1.55.2,4.52.36,6.07.48,14.37,1.1,28.35-2.26,41.72-7.36,5.16-1.97,10.35-4.33,14.61-7.91,5.33-4.48,7.53-10.96,9.77-17.36,2.51-7.15,6.73-16.53,4.86-24.35ZM674.59,509.04c-5.88,2.5-12.06,4.35-18.22,6.04-12.14,3.32-24.23,3.16-36.17,1.09.32-1.05.66-2.1,1-3.17.14-.44.32-.9.5-1.36.12-.17.25-.37.42-.61,1.55-2.25,2.95-4.54,4.71-6.65,3.47-4.16,7.63-7.82,12.47-10.28,10.2-5.19,19.32-1.18,28.23,4.71,3.68,2.44,6.9,5.58,9.51,9.14-.81.38-1.64.74-2.46,1.09Z"/>
          <path class="st1" d="M406.23,545.8c-.55-.8-1.06-1.64-1.5-2.51-3.25-6.39-3.09-14.05-1.4-21.02,2.22-9.15,6.26-17.75,9.76-26.45.9-2.25,3.65-7.48,3.65-7.48,0,0-1.05,5.01-1.14,5.33-.8,2.92-1.71,5.83-2.73,8.68-.63,1.77-1.28,3.53-1.95,5.28-.77,2.03-1.27,4.16-1.24,6.33,0,.11,0,.22.02.31.68,6.02,4.97,11.5,9.73,15,9.04,6.66,21.24,7.33,30.5.76,1.28-.91,2.35-1.9,3.32-2.95-.07-.55-.16-1.11-.27-1.66-1.36-6.18-4.55-12.01-8.15-17.15-3.78-5.39-8.37-9.65-13.95-13.1-5.47-3.38-9.97-6.5-12.55-12.62-1.18-2.81,1.89-8.86,2.75-11.51.85-2.61,1.73-5.27,2.83-7.81.17-.31,1.61-3.36,1.71-3.12,2.15,5.38,6.68,8.65,11.36,11.61,5.23,3.31,9.96,7.44,13.83,12.29,4.28,5.36,7.5,11.59,9.22,18.24,1.94,7.5.47,15.09-1.71,22.37-2.59,8.62-5.41,18.41-12.06,24.87-8.14,7.93-20.72,9.53-30.77,4.32-3.66-1.89-6.92-4.63-9.26-8Z"/>
        </g>
        <rect class="st1" x="403.17" y="435.61" width="21.38" height="21.38" transform="translate(-194.36 423.36) rotate(-45)"/>
        <rect class="st1" x="432.91" y="435.61" width="21.38" height="21.38" transform="translate(-185.65 444.39) rotate(-45)"/>
      </g>
      <polygon class="st1" points="616.42 451.04 617.77 448.6 646.82 438.8 646.12 441.02 616.42 451.04"/>
      <polygon class="st1" points="481.54 451.04 482.89 448.6 511.94 438.8 511.24 441.02 481.54 451.04"/>
    </g>
  </g>
  <g>
    <path class="st1" d="M439.52,797.24c.71,3.16,2.82,5.01,6.72,5.01,4.33,0,5.99-2.16,5.99-4.73s-1.19-4.33-6.42-5.62c-5.1-1.27-7.27-2.93-7.27-6.38,0-3.17,2.31-6.11,7.45-6.11s7.52,3.22,7.83,6.14h-2c-.54-2.53-2.19-4.37-5.93-4.37-3.41,0-5.28,1.59-5.28,4.22s1.56,3.62,5.95,4.71c6.74,1.67,7.74,4.37,7.74,7.25,0,3.54-2.58,6.58-8.14,6.58-5.98,0-8.2-3.47-8.64-6.71h2Z"/>
    <path class="st1" d="M487.09,795.49l-3.01,8.19h-1.97l8.76-23.92h2.31l9.14,23.92h-2.11l-3.08-8.19h-10.04ZM496.51,793.71c-2.64-7.05-4-10.46-4.48-12.08h-.03c-.58,1.83-2.11,6.05-4.24,12.08h8.75Z"/>
    <path class="st1" d="M531.4,779.77h1.94v10.39h14.22v-10.39h1.94v23.92h-1.94v-11.75h-14.22v11.75h-1.94v-23.92Z"/>
    <path class="st1" d="M585.18,803.68l-6.61-23.92h2.01c1.62,5.89,5.17,18.88,5.71,21.67h.03c.46-2.28,4.34-15.37,6.01-21.67h2.12c1.56,5.81,5.35,19.72,5.74,21.63h.03c.75-3.43,4.7-15.98,6.32-21.63h1.97l-7.29,23.92h-2.21c-1.56-5.63-5.24-19.29-5.66-21.4h-.03c-.62,3.14-4.27,15.49-5.97,21.4h-2.17Z"/>
    <path class="st1" d="M638.18,795.49l-3.01,8.19h-1.97l8.76-23.92h2.31l9.14,23.92h-2.11l-3.08-8.19h-10.04ZM647.59,793.71c-2.64-7.05-4-10.46-4.48-12.08h-.03c-.58,1.83-2.11,6.05-4.24,12.08h8.75Z"/>
  </g>
</svg>